<svg id="svg" version="1.1" viewBox="0 0 300 230.76923076923075" width="300" height="230.76923076923075" xmlns="http://www.w3.org/2000/svg"><svg xmlns="http://www.w3.org/2000/svg"><defs><clipPath id="clip-1"><rect x="0" y="0" transform="scale(0.1861,0.1861)" width="1612" height="1240" fill="none"/></clipPath></defs><g clip-path="url(#clip-1)" fill="none" fill-rule="nonzero" stroke="none" stroke-width="1" stroke-linecap="butt" stroke-linejoin="miter" stroke-miterlimit="10" stroke-dasharray="" stroke-dashoffset="0" font-family="none" font-weight="none" font-size="none" text-anchor="none" style="mix-blend-mode: normal"><path d="M0,0h300v209.65943v3.1768v17.933h-121.816h-40.22922h-5.49975h-12.8531h-34.45645h-1.44398h-12.55831h-1.74547h-41.84311h-0.1487h-27.40589v-29.61663v-23.98809v-93.20062v-22.15775z" fill="#ffffff"/><path d="M0,61.80614c1.69634,-1.18437 4.03413,-3.13865 5.62329,-4.13151c4.72132,-2.94938 9.71842,-5.71359 14.61164,-8.32016c13.59305,-7.24113 28.17823,-12.62978 43.57891,-14.20273c4.84429,-0.49467 10.13896,-0.6603 14.98325,0.14125c2.75136,0.45502 5.94138,1.5804 7.61371,3.93797c2.87829,4.05726 0.59739,9.88753 1.44454,14.44392c0.6549,3.52295 2.58852,6.96216 3.87878,10.27053c1.37196,3.51793 1.98145,7.7384 2.24684,11.48672c0.07481,1.05689 0.49801,3.29926 0.35174,4.11979c-0.36867,0.19318 -0.40608,0.18685 -0.79727,0.27562c0.25012,0.41669 1.37866,1.80931 1.49349,2.19994c1.27444,4.33586 2.85744,9.64299 2.5755,14.16309c-0.03331,0.53319 -1.21079,2.54516 -1.51191,3.07258c1.79293,3.07556 3.30112,6.04336 5.28182,9.03108c1.74584,2.63337 6.00037,5.83548 5.39237,9.15875c-0.58083,3.1755 -5.74448,3.12469 -7.55248,4.30608c-0.05136,1.96042 5.31048,6.54584 -0.00037,11.36892c-0.5678,0.51569 -0.9897,0.79467 -1.66749,1.21377c-8.77146,-3.70217 -16.75831,4.53759 -22.80968,-1.57854c-0.31079,-0.31414 -1.28263,-1.66433 -1.44975,-2.14969c-0.58753,-1.70602 -0.69361,-4.42407 0.01935,-6.11297c0.08449,-0.20006 0.12134,-0.15223 0.37686,-0.28846c0.70813,0.56148 0.71762,1.28766 0.93499,2.24442c1.24132,1.2897 2.01569,1.76687 3.79336,2.17444c3.19094,-1.13896 6.39808,-4.49851 9.13455,-6.46935c0.64467,-0.46414 2.6062,-0.98561 2.96743,-1.4304c-0.34969,-1.64088 -0.99342,-3.43362 0.64932,-4.63883l0.26297,0.12432c0.02624,0.70943 -0.49522,1.43058 -0.86743,2.08083c0.9147,0.79932 1.72239,1.51303 2.70019,2.24032c1.12686,-0.29833 2.34026,-0.66104 3.55962,-0.83356c2.88462,-0.40645 6.3964,-0.05527 8.34398,-2.71768c0.7969,-1.08945 -2.30825,-4.46985 -2.91476,-5.39944c-2.7696,-4.24541 -6.33964,-8.26582 -7.08145,-13.43337c0.67239,-0.95211 0.89944,-1.35037 1.39969,-2.40447c-0.16098,-2.42699 -2.56507,-13.84969 -3.57339,-15.98133c-5.65124,-1.88282 -19.76892,-0.59069 -26.06036,0.62792c-2.18226,0.42264 -5.16625,1.37903 -7.34423,2.1c1.02878,3.22426 2.69646,8.82227 2.9384,12.0402c-1.2428,1.6299 -2.6317,3.02177 -3.93573,4.58002c-3.40608,4.07029 -2.94864,10.19069 -1.71421,15.03238c-2.55205,0.67165 -7.1237,2.09367 -9.53449,2.31048c-3.09473,-4.89826 -3.82537,-11.60323 -10.47413,-13.19088c-3.96495,-1.04684 -8.50682,1.4531 -9.16284,5.68511c-0.7634,4.92618 0.69454,9.80937 3.64355,13.86849c2.74076,3.77233 7.60608,10.29212 13.01278,7.05633c0.52053,-0.31154 0.73251,-0.97835 1.2897,-0.98151c2.32742,6.391 5.46644,14.12457 11.89634,16.76185c7.29417,2.99181 29.0572,9.74181 36.27767,7.05186c1.13542,-0.42581 2.04901,-1.2951 2.53083,-2.408c1.91687,-4.40453 -2.53269,-7.39857 0.89404,-13.83071c-0.05099,0.82779 -0.42655,3.81328 -0.37091,4.12426c0.59442,3.31452 2.6384,9.8773 -0.55645,12.54808c-4.41514,3.691 -17.31365,-0.84268 -20.74392,4.43375c-1.70881,2.62872 -2.23102,6.62494 -3.34094,9.69622c-2.26452,1.56625 -3.39733,2.17035 -6.03517,3.04299c0.13567,-5.9023 -0.52705,-12.95918 -4.60831,-17.77798c-0.84715,-1.00031 -4.70806,-3.48703 -5.99237,-4.44212c-4.63995,-3.45074 -6.36476,-7.15906 -8.29057,-12.46396c-0.48052,-1.32413 -1.48641,-3.51904 -1.82605,-4.79553c-3.19876,2.9786 -5.74895,2.20459 -9.59181,1.20689c-3.23989,6.56166 -5.04584,12.78015 -13.9379,13.43803l-0.40087,0.03666c-1.04498,-13.10676 -8.47215,-20.74467 -12.79414,-32.78002c-1.95177,-3.14498 -0.7312,-9.92233 -1.39009,-12.36421c-0.79316,-2.93933 -5.60033,-14.325 -7.36999,-16.41067z" fill="#000000"/><path d="M57.84789,67.82103c1.25174,-0.08654 10.25118,-0.13976 10.83015,0.12692l-0.22742,0.21309c-2.12177,0.01563 -5.06203,0.44069 -7.20465,0.71594c-14.11824,1.81321 -30.69659,7.21377 -43.43976,13.57388c-2.69116,1.36656 -5.12516,2.9464 -7.98102,3.96328c11.87382,-10.28486 32.38213,-17.67618 48.0227,-18.59311z" fill="#ffffff"/><path d="M98.40391,159.4098c4.69299,-2.78263 5.33784,-1.73859 10.45403,-2.45993c9.45912,-1.33381 18.92159,-1.69001 28.44529,-2.18263c13.91464,-0.85199 27.85329,-1.25397 41.7938,-1.2054c19.57109,-0.16768 39.14367,-0.0121 58.70881,0.46619c10.01241,0.23877 20.01551,0.74609 30,1.52103c4.12407,0.33238 16.38462,1.18009 19.43486,3.37742l0.08747,0.29888c-1.76241,1.9286 -9.74442,1.9714 -12.35546,1.94516c-0.09864,1.00831 -0.26613,2.31011 -0.30149,3.29944c-6.52295,0.31861 -13.25434,1.24429 -19.81824,1.47395c-6.67184,0.23337 -13.34739,0.53002 -20.01923,0.76117c-3.30521,0.11464 -6.78536,-0.02903 -10.05149,0.17494l1.22643,2.55875c5.09926,-0.86315 8.45658,-1.78474 8.05831,4.7611c-0.43548,0.65434 -1.44417,1.859 -1.51489,2.49007c0.33499,1.22345 0.93238,2.56172 0.11538,3.73586c-1.50931,2.16923 -3.76303,3.88865 -5.866,5.46253c-1.66935,1.24876 -3.51551,2.79156 -5.32072,3.81886c-3.92122,2.23325 -8.05087,4.1371 -11.65757,6.89144c-3.91935,3.20844 -6.7072,7.63958 -10.88524,10.55211c-1.85732,1.29342 -4.03846,2.24442 -5.89206,3.47457c-4.49628,2.98325 -9.65695,5.183 -13.85248,8.5366c1.16352,0.62531 1.64051,0.86911 2.67599,1.73635c-0.47792,2.15323 -2.70558,7.69727 -3.68542,9.87097h-40.22922c1.97233,-4.80893 5.63747,-9.7835 7.88691,-14.59057c0.33629,-0.71836 1.36954,-3.32196 1.74882,-3.56576c2.38995,1.05707 5.6879,4.04591 8.06483,5.68548l12.61098,8.67618c1.34758,0.9268 3.67705,2.27978 4.83629,3.18238l3.92605,-9.50248c-3.50658,-1.20596 -5.96706,-2.8902 -9.20937,-4.66377c-3.0361,-1.66191 -6.15819,-3.22891 -9.17605,-4.93176c-1.94609,-1.09801 -4.26346,-1.83313 -6.01545,-3.12841c-1.40602,1.29715 -2.66669,3.25496 -3.70924,4.08871l-0.22295,-0.00931c0.28753,-0.68672 2.43257,-3.92122 2.95943,-4.34739c2.98195,-2.27605 3.9402,-4.96154 4.74007,-8.4696c1.35689,-5.83623 1.20521,-12.20471 -1.125,-17.77965c-1.37661,-3.29349 -4.39299,-5.8487 -6.91359,-8.25577c-1.05931,-1.01148 -1.46669,-2.06408 -0.9054,-3.52537c0.88474,-2.30323 3.8397,-2.39553 5.90602,-2.85726c-3.27134,-0.30037 -6.63071,-0.07574 -9.91303,-0.17792c-9.58809,-0.29833 -19.10918,-0.57804 -28.65186,-1.63641c-1.81303,-0.20118 -4.54615,-0.50267 -6.33983,-0.40608c-0.17661,-1.06731 -0.21365,-2.30676 -1.15459,-2.88387c-1.40025,-0.8585 -3.26241,-0.39194 -4.87686,-0.69268c-1.6312,-0.30372 -2.60806,-0.72022 -4.01706,-1.56811z" fill="#000000"/><path d="M219.48387,168.07463c2.0639,-0.25794 3.12841,0.76507 4.41067,2.20292c-1.84615,1.55304 -4.18176,2.59578 -6.18983,3.94597c-5.25931,3.53989 -10.41439,7.19814 -15.89888,10.38834c-0.45968,0.26799 -0.61228,0.58846 -0.68114,1.08648l0.24007,0.22984c1.02357,0.06532 2.63524,-1.2188 3.56762,-1.63679c5.56638,-2.49324 20.91067,-15.43939 26.72643,-13.20651c0.41501,0.41464 0.63648,0.59646 0.58809,1.24467c-0.2438,3.00298 -2.75806,3.17754 -4.76241,4.49498c-6.16005,4.05112 -12.31824,8.17835 -18.79839,11.70279c-1.08313,0.58995 -2.80459,1.19665 -3.68672,2.01365l0.05583,0.2103c3.43734,0.52854 20.6799,-11.24107 24.683,-13.28561c0.30893,-0.15763 0.46154,-0.00502 0.74442,0.12748c0.30707,0.44293 0.44665,0.80658 0.45596,1.35261c0.02792,1.83536 -12.4727,10.09336 -14.70968,11.50217c-2.48449,1.56514 -5.14578,2.84926 -7.54467,4.55211c-1.91687,1.36228 -3.51923,3.01489 -5.1402,4.70658c-0.92308,0.96402 -2.33002,2.45099 -3.44479,3.1098c-6.49132,3.78164 -13.08685,7.95409 -19.97382,10.98201c-2.98344,1.31203 -9.65285,1.46092 -12.53784,-0.13958c-3.63629,-2.01923 -7.10267,-3.47829 -10.3647,-6.12655c2.36036,-5.19603 4.09857,-9.31638 4.11588,-15.1768c0.01582,-5.317 -1.18083,-13.342 -5.22506,-17.21762c-1.76706,-1.69336 -4.07308,-2.8794 -6.15986,-5.00174c0.5719,-0.18443 1.15459,-0.33294 1.7451,-0.44442c11.46402,-2.26024 17.27438,3.40757 19.26551,14.18691c0.34355,0.00279 0.68654,0.02103 1.02841,0.05434c0.75409,0.07146 4.35893,1.05856 4.87481,1.92971c0.12115,0.20471 -0.30279,0.63052 0.16656,1.20744c0.86408,-0.0335 2.07227,-0.57134 2.9304,-0.80955c4.50019,-1.24355 8.32816,-3.37146 12.56948,-5.18524c3.34243,-1.42984 8.00993,-2.77314 11.11228,-4.61613c5.5701,-3.30931 9.30149,-6.72097 15.83747,-8.38455z" fill="#ffffff"/><path d="M178.51061,157.35112c18.91619,-0.4273 38.14076,0.29665 57.06011,0.93741c11.74504,0.3977 27.25868,0.23635 38.68734,2.62667c-2.02109,0.28772 -5.54032,0.31954 -7.70471,0.40124l-14.0304,0.49634c-16.22084,0.6134 -32.45099,0.94801 -48.683,1.00385c-21.56911,0.20118 -43.13933,-0.04169 -64.69746,-0.72878l-18.36123,-0.49373c-4.58821,-0.15056 -8.90937,-0.23561 -13.47804,-0.80881c7.53983,-1.02674 16.90571,-1.45217 24.53561,-1.71979c15.56538,-0.54566 31.10565,-1.4477 46.67177,-1.71439z" fill="#ffffff"/><path d="M159.94839,166.63921c0.88846,-0.0536 3.85068,0.14888 4.88151,0.18834c2.99888,0.11538 5.99944,0.17885 9.00037,0.18983c13.58784,0.12841 27.83598,0.43586 41.39367,0.1848c-3.77419,1.08741 -7.3567,3.76545 -10.80335,5.86582c-3.83561,2.33356 -6.23635,2.98344 -10.2134,4.79107c-5.09553,2.31607 -9.84231,4.30031 -15.0348,6.36551c-1.16948,-0.70329 -2.99777,-1.27984 -4.33251,-1.83983c-4.00478,-1.68033 -3.22965,-5.20478 -4.60813,-8.40186c-2.36855,-5.49361 -5.94696,-5.47035 -10.28337,-7.34367z" fill="#ffffff"/><path d="M17.73651,157.86011c0.27207,3.99156 0.67718,7.56141 3.07552,10.93102c3.6817,5.17295 8.61346,9.42841 13.03474,13.94758c4.47097,4.5696 8.36501,9.65769 12.541,14.48896c9.09882,10.52978 16.77301,22.16129 24.7554,33.54156h-1.74547h-41.84311h-0.1487h-27.40589v-29.61663v-23.98809c8.45449,-5.1817 14.14098,-9.49708 17.73651,-19.3044z" fill="#ffffff"/><path d="M17.73651,157.86011c0.27207,3.99156 0.67718,7.56141 3.07552,10.93102c3.6817,5.17295 8.61346,9.42841 13.03474,13.94758c4.47097,4.5696 8.36501,9.65769 12.541,14.48896c9.09882,10.52978 16.77301,22.16129 24.7554,33.54156h-1.74547c-6.30726,-9.19541 -12.93722,-18.16563 -19.87761,-26.89206c-2.80515,-3.55087 -6.61563,-8.48821 -9.6456,-11.79156c-3.78703,-4.04963 -7.66507,-8.01346 -11.63151,-11.88778c-4.34572,-4.18139 -10.00163,-8.0183 -10.77316,-14.4616c-1.79436,8.01495 -5.55901,12.72134 -11.19274,18.52705l15.55721,6.80806c-5.24918,1.15757 -9.32961,4.30831 -14.17517,6.6495c3.70236,3.66811 19.63379,27.98449 19.89545,33.04839h-0.1487h-27.40589v-29.61663v-23.98809c8.45449,-5.1817 14.14098,-9.49708 17.73651,-19.3044z" fill="#000000"/><path d="M0,201.15261c8.32295,7.50558 16.34531,14.31141 22.88096,23.55521c1.42984,2.02295 3.21086,3.95471 4.52494,6.06141h-27.40589z" fill="#ffffff"/><path d="M62.64119,174.16582c0.96923,-0.36644 1.83089,-0.72097 2.84926,-0.89739c1.48697,-0.25775 4.14491,0.13195 5.41042,-0.55887c5.38158,-2.93821 9.142,-5.8969 15.37891,-7.19163c1.41644,6.99677 1.41216,11.04491 1.55006,18.0951c7.1987,1.10062 19.52475,5.83734 24.85366,10.85471c9.47252,8.91811 15.71055,24.26055 19.77153,36.30149h-12.8531c-1.89752,-6.52295 -3.17624,-12.29404 -6.24454,-18.58995c-2.34622,-4.81452 -4.32301,-11.50496 -9.49783,-14.33561c-4.76185,-2.33189 -9.16842,-1.82754 -13.35651,-6.15074c-0.7835,-0.80955 -1.86904,-1.68983 -2.46495,-2.71712l-0.07407,-0.12469c-0.04634,-0.08561 -0.09268,-0.16935 -0.13902,-0.25496c-2.34622,3.134 -3.13958,4.15199 -7.29212,2.51799c-2.98939,-1.17618 -6.39361,-2.81576 -9.1822,-4.49814c-0.39622,-0.23821 -3.57878,0.76675 -4.26569,0.6737c-1.10937,0.00558 -1.5897,-0.134 -2.55875,-0.40385c-6.07742,4.40136 -9.16396,5.94603 -16.29696,8.73015l-1.93269,-0.9696c-1.02413,-2.91625 -4.93958,-24.40868 -1.24597,-25.60999c4.15087,-1.35 13.516,3.16973 17.59057,5.1294z" fill="#000000"/><path d="M210.06886,209.04156c6.30707,-2.60174 12.15633,-3.11911 18.84305,-3.69975c20.51241,-1.77916 41.46774,-0.58437 61.7866,2.65571c2.03598,0.32382 7.42184,1.13337 9.30149,1.66191v3.1768c-5.53846,-0.84677 -11.01551,-1.634 -16.58561,-2.27792c-22.95782,-2.65385 -46.48511,-0.95658 -69.48945,-0.79467c-1.27481,-0.17866 -3.2773,0.47457 -3.85608,-0.72208z" fill="#f2881b"/><path d="M81.8397,192.91005c4.33939,9.20844 3.4299,27.46526 3.30577,37.85918h-1.44398c0.12804,-10.51489 -0.02475,-21.59367 -1.01427,-32.08809c-0.17847,-1.89082 -0.81197,-3.8263 -0.84752,-5.77109z" fill="#000000"/><path d="M21.7219,147.53914l0.65527,0.15354c4.42835,9.20341 13.58859,10.08052 21.21514,15.46619c0.55105,0.38933 1.42388,0.9536 1.52699,1.59584l-0.25701,0.06569c-1.37382,-0.69752 -2.30211,-1.49442 -3.98375,-2.2794c-5.24386,-2.44801 -11.33282,-4.97326 -15.94615,-8.5111c-2.01048,-1.5415 -3.0482,-3.97667 -3.21048,-6.49076z" fill="#000000"/><path d="M213.92494,209.76365c-1.22084,0.15819 -4.84243,0.49318 -5.95347,0.31079l-0.12469,-0.1861c0.5062,-0.46712 1.52419,-0.66067 2.22208,-0.84677c0.57878,1.19665 2.58127,0.54342 3.85608,0.72208z" fill="#f19455"/><path d="M21.55422,145.5188l0.40087,-0.03666l0.42208,2.21055l-0.65527,-0.15354c-0.19727,-0.53617 -0.15633,-1.41737 -0.16768,-2.02035z" fill="#060c06"/><path d="M187.09988,91.60943c-0.21402,0.08784 13.61725,1.22978 14.28164,1.33102c13.92246,2.11768 27.61042,7.90552 38.25186,17.20962c6.58065,5.75397 12.66067,12.17103 16.41439,20.12605c3.95471,7.77916 6.5397,12.75037 7.02916,21.64801c-17.33561,-1.76055 -34.69727,-1.64553 -52.08685,-2.55875c-4.99876,-0.26241 -9.9268,-0.24957 -14.92928,-0.24007c-19.61055,0.21514 -39.18834,0.28251 -58.7505,1.95056c-5.75285,0.49057 -11.63282,0.47866 -17.40316,1.00329c0.2451,-7.64293 2.09795,-15.14833 5.43778,-22.0273c8.67971,-17.52432 26.66594,-30.91377 45.50267,-35.67599c2.69628,-0.6763 5.42903,-1.19739 8.18505,-1.56048c1.88598,-0.24138 6.34727,-0.59814 7.87742,-1.1371z" fill="#f2881b"/><path d="M168.57785,102.78759l0.05955,0.05769l-0.02196,0.24826c-1.60515,1.37457 -3.04355,2.13201 -4.69057,3.31303c-1.67736,1.20279 -3.57357,3.5572 -5.05403,5.06725c-6.36383,6.49132 -10.84001,15.21123 -12.85999,24.04299c-0.35825,1.56588 -0.58883,4.56756 -0.8544,6.38617c-3.5397,0.67295 -5.88945,0.92643 -9.44888,0.90372c-0.04764,-0.06458 -0.19001,-0.2531 -0.18406,-0.34243c1.02376,-15.7286 13.93381,-30.86687 27.71632,-37.58319c1.76873,-0.86185 3.47047,-1.46501 5.33803,-2.09349z" fill="#ffffff"/><path d="M218.11228,104.98139c11.44913,3.52816 22.0366,13.79833 27.3964,24.32382c1.84801,3.62885 3.75372,8.66129 2.64454,12.71613c-2.32258,0.41222 -5.25186,0.36756 -7.56886,-0.0201c-0.38151,-7.29194 -2.14206,-11.59057 -5.62965,-17.94268c-3.69975,-6.74051 -10.27295,-14.64342 -17.28908,-18.0415z" fill="#ffffff"/><path d="M217.66563,106.01706c-0.86911,-0.39119 -1.72891,-0.8023 -2.57754,-1.23313l0.00558,-0.40329l-0.19169,-0.02792l-0.09491,0.2518l-0.19913,-0.22109c0.70906,-0.41985 2.7227,0.32903 3.50434,0.59795z" fill="#ffdbb8"/><path d="M214.84801,51.29218l0.33127,0.32177c0.3536,2.54684 0.99007,5.46867 1.46278,8.02947c0.55831,3.01563 1.23573,3.74256 1.11104,6.91861c2.11228,0.62215 13.48697,3.14609 14.41935,3.82519l-0.08189,0.22239c-1.22643,0.72636 -7.86663,1.67587 -9.69231,2.12494c-1.61725,0.39808 -2.98697,0.8023 -4.66377,1.35335c-0.02419,3.19746 -1.89082,11.08362 -2.62035,14.64398l-0.10422,0.15949l-0.18238,-0.02475c-0.7928,-1.58114 -1.72891,-8.03486 -2.16625,-10.14138c-0.37407,-1.80484 -0.65136,-2.80403 -1.25806,-4.62357c-2.67618,-1.32227 -7.05893,-1.96935 -10.05521,-2.72736c-0.94913,-0.24007 -2.37283,-0.23598 -3.19541,-0.6482l0.00931,-0.18685c0.66439,-0.33815 1.87593,-0.45596 2.6799,-0.67128l9.92494,-2.67618c3.20658,-3.14814 2.94789,-11.33375 4.04032,-15.7379z" fill="#f2881b"/><path d="M187.98201,74.85354c7.21154,-0.46135 11.36911,5.49547 7.34926,12.04411c-1.16873,1.90366 -3.26799,2.56359 -5.41005,2.84907c-7.70844,1.74324 -14.87475,-12.40012 -1.93921,-14.89318z" fill="#f2881b"/><path d="M189.6737,77.80496c0.29963,0.01619 0.6402,0.03741 0.9361,0.09287c1.06079,0.20937 1.99132,0.83691 2.58313,1.74082c2.45844,3.73939 -0.817,8.41117 -5.6706,7.35558c-0.69975,-0.43288 -2.04398,-1.52457 -2.03598,-2.38325c1.07196,-1.20726 3.50434,-0.12692 5.13834,-1.3098c1.55955,-2.38511 -2.08437,-3.54547 -2.29839,-4.733c0.51179,-0.59051 0.51737,-0.45614 1.34739,-0.76321z" fill="#ffffff"/><path d="M33.11892,106.68536c5.07674,-0.38859 7.25081,2.29578 9.12953,6.67109c-0.30614,1.68015 -0.23096,4.45143 -0.2384,6.24175c0.45465,0.56762 0.78015,0.95918 0.83114,1.63567l-0.27804,0.22184c-1.01687,0.10068 -2.5273,-0.62103 -3.50118,-1.03176c-0.76117,-0.98542 -0.92457,-1.27444 -1.43524,-2.4121c1.8683,-2.20627 2.12903,-2.74895 0.8531,-5.49007c-1.4451,-2.79026 -3.69398,-4.2188 -5.63207,-0.62438c-1.51917,2.81743 -0.20955,6.39231 0.81718,9.2317c-1.17636,-1.27984 -1.81787,-2.64454 -2.62426,-4.15143c-2.17481,-4.06396 -2.87196,-7.89715 2.07823,-10.29231z" fill="#000000"/><path d="M89.26247,95.16998c2.3103,-0.19597 3.16545,0.53784 4.8335,1.96321c-2.85223,1.17934 -5.60695,1.75403 -8.55484,2.62016c-2.44094,0.71725 -4.90496,1.52866 -7.33251,2.30248c-0.91619,0.30074 -2.89057,0.69249 -4.02357,1.01464c0.24715,-0.35416 0.50602,-0.70031 0.77568,-1.0379c2.83548,-3.49839 9.87971,-6.39156 14.30174,-6.86259z" fill="#000000"/><path d="M71.89373,203.25931c1.66024,-0.16191 2.99107,0.4206 3.61266,2.05459c0.32512,0.84677 0.29032,1.78846 -0.09659,2.60732c-0.45205,0.98077 -1.37866,1.48883 -2.34212,1.83499c-4.53852,0.15447 -5.76849,-4.80335 -1.17395,-6.4969z" fill="#000000"/><path d="M230.67246,81.10273c0.29218,0.47959 0.41315,1.69727 0.92866,2.5621c0.92122,1.53815 2.60732,1.13914 3.93983,1.94293c-1.70285,1.65019 -3.83561,-0.83896 -4.47395,4.73933l-0.11352,0.01898c-1.61538,-0.81942 0.11725,-3.46563 -5.37469,-4.86904c3.4206,-0.6469 3.84305,-1.24299 5.09367,-4.39429z" fill="#f2881b"/></g></svg></svg>